<?xml version="1.0" encoding="UTF-8"?>
<svg id="COLOR_5" data-name="COLOR 5" xmlns="http://www.w3.org/2000/svg" viewBox="0 0 100 100">
  <defs>
    <style>
      .cls-1 {
        fill: #7f5c41;
      }

      .cls-1, .cls-2, .cls-3, .cls-4 {
        stroke-width: 0px;
      }

      .cls-2 {
        fill: #551a20;
      }

      .cls-3 {
        fill: red;
      }

      .cls-4 {
        fill: #fab677;
      }
    </style>
  </defs>
  <path class="cls-3" d="m44,60.8c-1.5,1.6-3.2,3-5.2,3.4-2,.32-4.04-.14-5.7-1.3-.46-.32-.75-.84-.8-1.4,0-2.5,4-3,4.1-3h1.3c2.7-.2,4.3.8,6.3,2.3Z"/>
  <path class="cls-4" d="m58.4,7.1c-.16-.16-.38-.23-.6-.2l-4.8.4c-.62,2.12-2.84,3.34-4.96,2.72-1.06-.31-1.94-1.04-2.44-2.02h-.8c-.38.04-.67.38-.63.77,0,.05,0,.09.03.13l1.1,8.2h12l1.3-9.7c-.04-.12-.11-.22-.2-.3Z"/>
  <path class="cls-3" d="m70,58.2h-.1c-.61-1.2-1.5-2.23-2.6-3-6.3-4.6-13.6-1.4-17.9,2.7-.81.79-1.58,1.63-2.3,2.5l-.9,1c-1.9,2.1-4,4.3-7,4.8h-1.6c-1.92.01-3.8-.54-5.4-1.6v.3l2.5,18.7c.39,2.63,2.64,4.58,5.3,4.6h23.2c2.66-.02,4.91-1.97,5.3-4.6l2.5-18.7c.35-2.28,0-4.62-1-6.7Z"/>
  <path id="_Path_" data-name=" Path " class="cls-2" d="m94,93.1h-6c-.52.17-.81.74-.64,1.26.1.3.34.54.64.64h6c.52-.17.81-.74.64-1.26-.1-.3-.34-.54-.64-.64Z"/>
  <path id="_Path_2" data-name=" Path 2" class="cls-2" d="m84,93.1h-1.9c-.52.17-.81.74-.64,1.26.1.3.34.54.64.64h1.9c.52-.17.81-.74.64-1.26-.1-.3-.34-.54-.64-.64Z"/>
  <path id="_Compound_Path_" data-name=" Compound Path " class="cls-2" d="m77.9,93.1h-6.5c.82-.89,1.34-2.01,1.5-3.2l3.2-24.1c1.2-9.1-5.3-18-14.9-20.2-.78-.21-1.34-.89-1.4-1.7l.9-17.5h.1c2.43,0,4.4-1.97,4.4-4.4h0c0-2.43-1.97-4.4-4.4-4.4h-3l1.3-9.6c.17-1.48-.9-2.82-2.38-2.99-.14-.02-.28-.02-.42-.01l-5.5.5c-.44.04-.81.36-.9.8-.1,1.1-1,1.95-2.1,2-.93-.08-1.72-.71-2-1.6-.14-.43-.55-.72-1-.7h-1.6c-1.48.18-2.53,1.53-2.35,3.01,0,.1.03.2.05.29l1.1,8.1h-2.9c-2.43,0-4.4,1.97-4.4,4.4h0c0,2.43,1.97,4.4,4.4,4.4h.1l.9,17.5c-.06.81-.62,1.49-1.4,1.7-9.6,2.3-16.1,11.2-14.9,20.2l3.2,24.1c.16,1.19.68,2.31,1.5,3.2h-14c-.52.17-.81.74-.64,1.26.1.3.34.54.64.64h63.4c.47.29,1.09.15,1.38-.32s.15-1.09-.32-1.38c-.32-.2-.73-.2-1.05,0h0ZM42.9,8.4c.12-.17.3-.28.5-.3h.8c1.01,1.97,3.42,2.74,5.38,1.74.98-.5,1.71-1.38,2.02-2.44l4.8-.4c.22-.03.44.04.6.2.13.13.2.31.2.5l-1.3,9.7h-12l-1.1-8.2c-.14-.26-.1-.58.1-.8Zm-3.8,16c-1.38,0-2.5-1.12-2.5-2.5s1.12-2.5,2.5-2.5h21.8c1.38,0,2.5,1.12,2.5,2.5s-1.12,2.5-2.5,2.5h-21.8Zm28,68.6h-34.2c-2.03.02-3.75-1.49-4-3.5l-3.1-24c-1.1-8,5-16.1,13.4-18.1,1.63-.44,2.77-1.91,2.8-3.6l-.9-17.4h17.8l-.9,17.4c.03,1.69,1.17,3.16,2.8,3.6,8.5,2,14.5,10.1,13.4,18.1l-3.2,24.1c-.25,1.97-1.91,3.47-3.9,3.5,0,0,0-.1,0-.1Z"/>
  <path id="_Path_3" data-name=" Path 3" class="cls-2" d="m9.5,93.1h-3.5c-.52.17-.81.74-.64,1.26.1.3.34.54.64.64h3.5c.52-.17.81-.74.64-1.26-.1-.3-.34-.54-.64-.64Z"/>
  <path id="_Compound_Path_2" data-name=" Compound Path 2" class="cls-2" d="m70,57.4c-.75-1.47-1.85-2.74-3.2-3.7-6.8-4.9-15.1-2.1-20.4,2.8-.88.79-1.71,1.62-2.5,2.5l-.3.4c-2.5-1.8-4.8-3.4-9.1-2.9-2,.2-5.3,1.4-5.7,4.2-.15.86-.22,1.73-.2,2.6,0,.63.03,1.27.1,1.9l2.5,18.7c.5,3.6,3.57,6.28,7.2,6.3h23.2c3.63-.02,6.7-2.7,7.2-6.3l2.5-18.7c.36-2.67-.09-5.39-1.3-7.8Zm-35.3,1h1.3c2.6,0,4.3,1.1,6.3,2.5-1.5,1.6-3.2,3-5.2,3.4-2,.32-4.04-.14-5.7-1.3-.46-.32-.75-.84-.8-1.4.1-2.7,4.1-3.2,4.2-3.2h-.1Zm34.6,6.5l-2.4,18.6c-.39,2.63-2.64,4.58-5.3,4.6h-23.2c-2.66-.02-4.91-1.97-5.3-4.6l-2.5-18.6v-.3c1.6,1.06,3.48,1.61,5.4,1.6h1.5c3-.5,5.1-2.6,7-4.8l.9-1c.72-.87,1.49-1.71,2.3-2.5,4.3-4.3,11.6-7.4,17.9-2.9,1.1.77,1.99,1.8,2.6,3h.1c1.07,2.13,1.46,4.54,1.1,6.9,0,0-.1,0-.1,0Z"/>
  <g>
    <circle class="cls-1" cx="49" cy="12.1" r=".8"/>
    <path id="_Compound_Path_8" data-name=" Compound Path 8" class="cls-1" d="m53.8,8.5c-.99,0-1.8.81-1.8,1.8s.81,1.8,1.8,1.8,1.8-.81,1.8-1.8h0c0-.99-.81-1.8-1.8-1.8Zm0,2.7c-.44,0-.8-.36-.8-.8s.36-.8.8-.8.8.36.8.8h0c0,.44-.36.8-.8.8Z"/>
    <circle class="cls-1" cx="54.6" cy="13" r=".3"/>
    <circle class="cls-1" cx="51.4" cy="15.4" r=".3"/>
    <circle class="cls-1" cx="47.3" cy="11.7" r=".3"/>
    <circle class="cls-1" cx="46.1" cy="15.4" r=".6"/>
    <circle class="cls-1" cx="44.3" cy="13.7" r=".2"/>
    <circle class="cls-1" cx="50.3" cy="15" r=".2"/>
  </g>
</svg>