<?xml version="1.0" encoding="UTF-8"?>
<svg id="COLOR_8" data-name="COLOR 8" xmlns="http://www.w3.org/2000/svg" viewBox="0 0 100 100">
  <defs>
    <style>
      .cls-1 {
        fill: #7f5c41;
      }

      .cls-1, .cls-2, .cls-3, .cls-4 {
        stroke-width: 0px;
      }

      .cls-2 {
        fill: #551a20;
      }

      .cls-3 {
        fill: #fab677;
      }

      .cls-4 {
        fill: #007f75;
      }
    </style>
  </defs>
  <path class="cls-3" d="m58.4,7.1c-.16-.16-.38-.23-.6-.2l-4.8.4c-.62,2.12-2.84,3.34-4.96,2.72-1.06-.31-1.94-1.04-2.44-2.02h-.8c-.38.04-.67.38-.63.77,0,.05.01.09.03.13l1.1,8.1h12l1.3-9.6c-.04-.12-.11-.22-.2-.3Z"/>
  <path class="cls-4" d="m32.6,58.9h-2c-.2,0-6,.8-6,4.6.01.38.12.76.3,1.1l.2.4.8.8c2.38,1.68,5.32,2.36,8.2,1.9,3.2-.6,5.5-2.6,7.7-5.1-3-2.1-5.3-3.7-9.2-3.7Z"/>
  <path class="cls-4" d="m59.5,54c-5,.3-9.3,2.4-13.1,6.4l-1.8,2c-2.8,3.2-5.6,6.4-10.2,7.2l-2.1.2c-1.75-.01-3.48-.35-5.1-1l7.8,14c1.4,3.23,4.58,5.31,8.1,5.3h17.6c3.52.01,6.7-2.07,8.1-5.3v-.2l11-19.5c-3.5-6.5-12.9-9.5-20.3-9.1Z"/>
  <path id="_Path_" data-name=" Path " class="cls-2" d="m94,93.1h-6c-.52-.17-1.09.11-1.26.64-.17.52.11,1.09.64,1.26.2.07.42.07.62,0h6c.52-.17.81-.74.64-1.26-.1-.3-.34-.54-.64-.64Z"/>
  <path id="_Path_2" data-name=" Path 2" class="cls-2" d="m84,93.1h-1.9c-.52.17-.81.74-.64,1.26.1.3.34.54.64.64h1.9c.52.17,1.09-.11,1.26-.64.17-.52-.11-1.09-.64-1.26-.2-.07-.42-.07-.62,0Z"/>
  <path id="_Path_3" data-name=" Path 3" class="cls-2" d="m9.5,93.1h-3.5c-.52-.17-1.09.11-1.26.64-.17.52.11,1.09.64,1.26.2.07.42.07.62,0h3.5c.52.17,1.09-.11,1.26-.64.17-.52-.11-1.09-.64-1.26-.2-.07-.42-.07-.62,0Z"/>
  <path id="_Compound_Path_" data-name=" Compound Path " class="cls-2" d="m82.3,50.9l-6.9-8c-3.92-4.45-9.48-7.12-15.4-7.4v-6.9h3c3.09,0,5.6-2.51,5.6-5.6.06-3.09-2.41-5.64-5.5-5.7-.03,0-.07,0-.1,0h-5.1l1.3-9.5c.06-1.49-1.1-2.75-2.59-2.81-.1,0-.21,0-.31,0l-5.5.5c-.44.04-.81.36-.9.8-.1,1.1-1,1.95-2.1,2-.93-.08-1.72-.71-2-1.6-.14-.43-.55-.72-1-.7h-1.6c-1.48.18-2.53,1.53-2.35,3.01.01.1.03.2.05.29l1.1,8h-5c-3.09,0-5.6,2.51-5.6,5.6h0c-.06,3.09,2.41,5.64,5.5,5.7.03,0,.07,0,.1,0h3v6.9c-5.94.31-11.5,3.01-15.4,7.5l-6.9,8c-3.4,3.96-4.25,9.5-2.2,14.3l11.4,20.3c1.37,3.19,3.76,5.83,6.8,7.5H14.5c-.52-.17-1.09.11-1.26.64-.17.52.11,1.09.64,1.26.2.07.42.07.62,0h63.4c.52-.17.81-.74.64-1.26-.1-.3-.34-.54-.64-.64h-11.6c3.03-1.68,5.42-4.32,6.8-7.5l11.4-20.3c2.09-4.82,1.24-10.42-2.2-14.4ZM42.9,8.4c.12-.17.3-.28.5-.3h.8c1.01,1.97,3.42,2.74,5.38,1.74.98-.5,1.71-1.38,2.02-2.44l4.8-.4c.22-.03.44.04.6.2.13.13.2.31.2.5l-1.2,9.6h-12l-1.2-8.1c-.14-.26-.1-.58.1-.8Zm-5.9,18.3c-2.04,0-3.7-1.66-3.7-3.7h0c-.06-2.04,1.56-3.74,3.6-3.8.03,0,.07,0,.1,0h26c2.04,0,3.7,1.66,3.7,3.7.06,2.04-1.56,3.74-3.6,3.8-.03,0-.07,0-.1,0h-26Zm21,1.9v6.9h-16v-6.9h16Zm24.8,35.8l-11.4,20.3c-2.16,5.04-7.12,8.3-12.6,8.3h-17.5c-5.48,0-10.44-3.26-12.6-8.3l-11.5-20.3c-1.74-4.1-1-8.83,1.9-12.2l3.2-3.6h18.7c.52-.17.81-.74.64-1.26-.1-.3-.34-.54-.64-.64h-17l2.1-2.4c3.78-4.33,9.25-6.81,15-6.8h17.8c5.75,0,11.22,2.47,15,6.8l2.1,2.3h-24.6c-.52-.17-1.09.11-1.26.64-.17.52.11,1.09.64,1.26.2.07.42.07.62,0h26.3l3.2,3.6c2.94,3.4,3.68,8.18,1.9,12.3Z"/>
  <circle class="cls-1" cx="49" cy="12.1" r=".8"/>
  <path id="_Compound_Path_2" data-name=" Compound Path 2" class="cls-1" d="m53.8,8.5c-.99,0-1.8.81-1.8,1.8s.81,1.8,1.8,1.8c.99,0,1.8-.81,1.8-1.8h0c0-.99-.81-1.8-1.8-1.8Zm0,2.7c-.44,0-.8-.36-.8-.8,0-.44.36-.8.8-.8.44,0,.8.36.8.8h0c0,.44-.36.8-.8.8Z"/>
  <circle class="cls-1" cx="54.6" cy="13" r=".3"/>
  <circle class="cls-1" cx="51.4" cy="15.4" r=".3"/>
  <circle class="cls-1" cx="47.3" cy="11.7" r=".3"/>
  <circle class="cls-1" cx="46.1" cy="15.4" r=".6"/>
  <circle class="cls-1" cx="44.3" cy="13.7" r=".2"/>
  <circle class="cls-1" cx="50.3" cy="15" r=".2"/>
  <path id="_Path_4" data-name=" Path 4" class="cls-2" d="m44.8,48.6h1.7c.52.17,1.09-.11,1.26-.64.17-.52-.11-1.09-.64-1.26-.2-.07-.42-.07-.62,0h-1.7c-.52.17-.81.74-.64,1.26.1.3.34.54.64.64Z"/>
  <path id="_Compound_Path_3" data-name=" Compound Path 3" class="cls-2" d="m79.9,62.7c-3.7-7.5-14.3-11.1-22.4-10.7-5.54.34-10.71,2.86-14.4,7l-1.9,2.1c-3.6-2.6-6.7-4.9-12.7-4.2-2.7.3-7.3,1.9-7.7,6v.9c.07.71.31,1.4.7,2l9.8,17.4v.2c1.71,3.94,5.6,6.5,9.9,6.5h17.5c4.3,0,8.19-2.56,9.9-6.5l11.2-19.7c.21-.29.25-.67.1-1Zm-49.3-3.8c3.9,0,6.3,1.6,9.2,3.8-2.2,2.4-4.5,4.5-7.7,5.1-.89.15-1.8.18-2.7.1-1.99-.12-3.9-.82-5.5-2l-.7-.9-.2-.2c-.18-.34-.29-.72-.3-1.1,0-3.8,5.7-4.6,6-4.6h1.9v-.2Zm36.4,23.7v.2c-1.4,3.23-4.58,5.31-8.1,5.3h-17.6c-3.52.01-6.7-2.07-8.1-5.3l-7.5-13.3-.4-.7c1.31.5,2.7.81,4.1.9h1l2.1-.2c4.6-.8,7.4-4.1,10.2-7.2l1.8-2c3.8-4.1,8.1-6.2,13.1-6.4h.4c7.3-.3,16.5,2.8,20,9.1l-11,19.6Z"/>
</svg>