<?xml version="1.0" encoding="UTF-8"?>
<svg id="COLOR_4" data-name="COLOR 4" xmlns="http://www.w3.org/2000/svg" viewBox="0 0 100 100">
  <defs>
    <style>
      .cls-1 {
        fill: #7f5c41;
      }

      .cls-1, .cls-2, .cls-3, .cls-4 {
        stroke-width: 0px;
      }

      .cls-2 {
        fill: #551a20;
      }

      .cls-3 {
        fill: #4d0575;
      }

      .cls-4 {
        fill: #fab677;
      }
    </style>
  </defs>
  <path class="cls-4" d="m57.3,7.3c-.27-.25-.64-.36-1-.3l-6.5.6c-.73,2.66-3.48,4.23-6.15,3.5-1.37-.38-2.52-1.32-3.15-2.6h-1.3c-.36.04-.68.22-.9.5-.21.29-.29.65-.2,1l1.4,5h17.7l.4-6.8c.03-.33-.08-.65-.3-.9Z"/>
  <path id="_Path_" data-name=" Path " class="cls-3" d="m61.6,47.5c.04,1.12-.71,2.12-1.8,2.4-1.86.69-3.92.58-5.7-.3-1.77-1-3.35-2.28-4.7-3.8,1.59-2,3.95-3.24,6.5-3.4,1.79-.03,3.5.78,4.6,2.2.68.82,1.06,1.84,1.1,2.9Z"/>
  <path id="_Path_2" data-name=" Path 2" class="cls-3" d="m60.5,51.6c-.99.4-2.04.6-3.1.6-1.46-.02-2.89-.36-4.2-1-2.07-1.14-3.93-2.63-5.5-4.4-2.6-2.6-5-5-8-4.6-2.44.48-4.32,2.44-4.7,4.9v30.1c0,3.4,2.3,6.2,5.1,6.2h16.4c2.8,0,5.1-2.8,5.1-6.2v-26.2s-1.1.6-1.1.6Z"/>
  <path id="_Path_3" data-name=" Path 3" class="cls-2" d="m86.74,93.74c-.17.52.11,1.09.64,1.26.2.07.42.07.62,0h6c.52-.17.81-.74.64-1.26-.1-.3-.34-.54-.64-.64"/>
  <path id="_Path_4" data-name=" Path 4" class="cls-2" d="m84,93.1h-1.9c-.52.17-.81.74-.64,1.26.1.3.34.54.64.64h1.9c.52.17,1.09-.11,1.26-.64.17-.52-.11-1.09-.64-1.26-.2-.07-.42-.07-.62,0Z"/>
  <path id="_Compound_Path_" data-name=" Compound Path " class="cls-2" d="m77.9,93.1h-9.1c.2-.44.3-.92.3-1.4.01-1.32-.78-2.51-2-3,1.26-1.16,1.98-2.79,2-4.5v-45.8c0-4.33-3.21-8-7.5-8.6v-3.5c2.78-.35,4.87-2.7,4.9-5.5.11-3.09-2.31-5.69-5.4-5.8h-.5l.4-6.7c.06-1.77-1.32-3.25-3.08-3.31-.14,0-.28,0-.42.01l-7.2.7c-.44.04-.81.36-.9.8-.23,1.7-1.79,2.88-3.49,2.65-1.16-.16-2.13-.95-2.51-2.05-.14-.43-.55-.72-1-.7l-2,.2c-1.76.16-3.05,1.72-2.89,3.48.02.18.05.35.09.52l1.2,4.4c-2.94.21-5.21,2.66-5.2,5.6.03,2.8,2.12,5.15,4.9,5.5v3.6c-4.33.55-7.58,4.23-7.6,8.6v45.9c.02,1.71.74,3.34,2,4.5-1.2.52-1.99,1.69-2,3,0,.45.11.89.3,1.3H14.5c-.52-.17-1.09.11-1.26.64-.17.52.11,1.09.64,1.26.2.07.42.07.62,0h63.4c.5-.24.7-.84.46-1.34-.1-.2-.26-.37-.46-.46ZM39.6,9c.22-.28.54-.46.9-.5h1.3c1.23,2.47,4.23,3.48,6.7,2.25,1.28-.63,2.22-1.78,2.6-3.15l6.5-.6c.72-.06,1.34.48,1.4,1.2v.1l-.4,6.7h-17.8l-1.4-4.9c-.12-.38-.04-.79.2-1.1Zm-4,11.7c0-2.01,1.6-3.65,3.6-3.7h21.7c2.04,0,3.7,1.66,3.7,3.7s-1.66,3.7-3.7,3.7h-21.7c-1.97-.05-3.55-1.63-3.6-3.6v-.1Zm24.1,5.6v3.4h-19.3v-3.3h19.3v-.1Zm-26.8,57.9v-45.8c0-3.7,3-6.7,6.7-6.7h20.8c3.7,0,6.7,3,6.7,6.7h0v45.8c0,2.37-1.93,4.3-4.3,4.3h-25.6c-2.37,0-4.3-1.93-4.3-4.3h0Zm33,8.9h-31.8c-.72,0-1.3-.58-1.3-1.3v-.1c0-.72.58-1.3,1.3-1.3h31.8c.72,0,1.3.58,1.3,1.3v.1c0,.72-.58,1.3-1.3,1.3h0Z"/>
  <path id="_Path_5" data-name=" Path 5" class="cls-2" d="m9.5,93.1h-3.5c-.52-.17-1.09.11-1.26.64-.17.52.11,1.09.64,1.26.2.07.42.07.62,0h3.5c.52.17,1.09-.11,1.26-.64.17-.52-.11-1.09-.64-1.26-.2-.07-.42-.07-.62,0Z"/>
  <g>
    <circle class="cls-1" cx="54.6" cy="9.7" r="1.1"/>
    <circle class="cls-1" cx="56.1" cy="11.4" r=".4"/>
    <circle class="cls-1" cx="51" cy="13.9" r=".4"/>
    <circle class="cls-1" cx="43.9" cy="13.1" r=".8"/>
    <circle class="cls-1" cx="41.8" cy="11.7" r=".2"/>
    <circle class="cls-1" cx="49.5" cy="13.3" r=".2"/>
  </g>
  <path id="_Compound_Path_2" data-name=" Compound Path 2" class="cls-2" d="m65.2,47.2c-.1-1.44-.66-2.81-1.6-3.9-1.45-1.84-3.66-2.91-6-2.9h-.1c-3.06.13-5.93,1.55-7.9,3.9-2.4-2.4-5-4.5-8.5-4-3.31.56-5.89,3.18-6.4,6.5v30.4c0,4.5,3.2,8.1,7.1,8.1h16.3c3.9,0,7.1-3.6,7.1-8.1,0,0,0-30,0-30Zm-7.7-4.9c1.79-.03,3.5.78,4.6,2.2.68.82,1.06,1.84,1.1,2.9.04,1.12-.71,2.12-1.8,2.4-1.86.69-3.92.58-5.7-.3-1.77-1-3.35-2.28-4.7-3.8,1.59-2,3.95-3.24,6.5-3.4Zm5.8,34.9c0,3.4-2.3,6.2-5.1,6.2h-16.3c-2.8,0-5.1-2.8-5.1-6.2v-30.1c.38-2.46,2.26-4.42,4.7-4.9,3-.4,5.4,2,8,4.6,1.57,1.77,3.43,3.26,5.5,4.4,1.31.64,2.74.98,4.2,1,1.06,0,2.11-.2,3.1-.6l1.1-.6v26.2h-.1Z"/>
</svg>