<?xml version="1.0" encoding="UTF-8"?>
<svg id="COLOR_1" data-name="COLOR 1" xmlns="http://www.w3.org/2000/svg" viewBox="0 0 100 100">
  <defs>
    <style>
      .cls-1 {
        fill: #7f5c41;
      }

      .cls-1, .cls-2, .cls-3, .cls-4 {
        stroke-width: 0px;
      }

      .cls-2 {
        fill: #551a20;
      }

      .cls-3 {
        fill: #fff193;
      }

      .cls-4 {
        fill: #fab677;
      }
    </style>
  </defs>
  <path class="cls-4" d="m57.6,8.3l-.5,9h-6.9c.32-.27.51-.68.5-1.1,0-.8-.65-1.45-1.45-1.45s-1.45.65-1.45,1.45c0,.42.18.83.5,1.1h-8.2l-2-7.2c-.17-.7.26-1.4.95-1.57.05-.01.1-.02.15-.03h1.4c1.16,2.49,3.65,4.09,6.4,4.1h.7c3-.3,5.49-2.46,6.2-5.4l2.4-.2h.5l.5.3c.25.27.36.64.3,1Z"/>
  <path class="cls-4" d="m51.8,7.3c-1.01,2.69-4,4.05-6.69,3.05-1.08-.41-2-1.16-2.61-2.15,0,0,9.3-.9,9.3-.9Z"/>
  <path id="_Path_" data-name=" Path " class="cls-3" d="m65.4,60.7c0,1.2-.8,2.1-2.4,2.6-2.5.78-5.19.63-7.6-.4-2.21-1.07-4.23-2.49-6-4.2,2.23-2.25,5.23-3.58,8.4-3.7,2.3-.08,4.52.83,6.1,2.5.89.84,1.43,1.98,1.5,3.2Z"/>
  <path id="_Path_2" data-name=" Path 2" class="cls-3" d="m63.6,65.1c-1.22.41-2.51.61-3.8.6-1.75,0-3.48-.35-5.1-1-2.5-1.19-4.8-2.78-6.8-4.7-3.3-2.8-6.4-5.5-10.4-5-2.96.31-5.43,2.42-6.2,5.3v20.5c.05,3.68,3.02,6.65,6.7,6.7h20.6c3.76,0,6.8-3.04,6.8-6.8h0v-16.5c-.55.38-1.16.69-1.8.9Z"/>
  <path id="_Path_3" data-name=" Path 3" class="cls-2" d="m94,93.1h-6c-.52-.17-1.09.11-1.26.64-.17.52.11,1.09.64,1.26.2.07.42.07.62,0h6c.52.17,1.09-.11,1.26-.64.17-.52-.11-1.09-.64-1.26-.2-.07-.42-.07-.62,0Z"/>
  <path id="_Path_4" data-name=" Path 4" class="cls-2" d="m84,93.1h-1.9c-.52-.17-1.09.11-1.26.64-.17.52.11,1.09.64,1.26.2.07.42.07.62,0h1.9c.52.17,1.09-.11,1.26-.64.17-.52-.11-1.09-.64-1.26-.2-.07-.42-.07-.62,0Z"/>
  <path id="_Compound_Path_" data-name=" Compound Path " class="cls-2" d="m77.9,93.1h-5.7c1.1-1.16,1.71-2.7,1.7-4.3v-40c0-4.8-3.9-8.7-8.7-8.7h-3.6v-6.8h1.5c3.09,0,5.6-2.51,5.6-5.6v-4.9c0-3.09-2.51-5.6-5.6-5.6h-2.7l.6-8.8c.12-1.76-1.21-3.29-2.98-3.41-.17-.01-.35,0-.52,0l-15.1,1.4-2,.2c-1.76.16-3.05,1.72-2.89,3.48.02.18.05.35.09.52l1.9,6.6h-2.5c-3.09,0-5.6,2.51-5.6,5.6h0v4.9c0,3.09,2.51,5.6,5.6,5.6h1.5v6.9h-3.7c-4.8,0-8.7,3.9-8.7,8.7h0v39.9c0,1.6.6,3.14,1.7,4.3h-13.3c-.52-.17-1.09.11-1.26.64-.17.52.11,1.09.64,1.26.2.07.42.07.62,0h63.4c.52.17,1.09-.11,1.26-.64.17-.52-.11-1.09-.64-1.26-.2-.07-.42-.07-.62,0h0ZM48.3,10.7h-.7c-1.53-.21-2.88-1.09-3.7-2.4l7.9-.7h1.4c-.85,1.93-2.79,3.16-4.9,3.1Zm-7.8-2.2h1.3c1.03,2.34,3.25,3.95,5.8,4.2h.7c3.3,0,6.16-2.29,6.9-5.5h2.4c.36-.06.73.05,1,.3.28.25.43.62.4,1l-.5,9h-17l-2-7.2c-.07-.35,0-.71.2-1,.21-.29.54-.48.9-.5,0,0-.1-.3-.1-.3Zm-3.5,22.9c-2.04,0-3.7-1.66-3.7-3.7h0v-4.9c.05-2,1.69-3.6,3.7-3.6h26c2.04,0,3.7,1.66,3.7,3.7h0v4.9c0,2.04-1.66,3.7-3.7,3.7h-26s0-.1,0-.1Zm22.6,1.9v6.9h-19.2v-6.9h19.3-.1Zm12.4,55.5c0,2.37-1.93,4.3-4.3,4.3h-35.4c-2.37,0-4.3-1.93-4.3-4.3h0v-40c0-3.7,3-6.7,6.7-6.7h30.5c3.7-.06,6.74,2.9,6.8,6.6v40.1Z"/>
  <path class="cls-1" d="m50.7,16.2c0,.42-.18.83-.5,1.1h-2c-.32-.27-.51-.68-.5-1.1,0-.83.67-1.5,1.5-1.5s1.5.67,1.5,1.5Z"/>
  <path id="_Path_5" data-name=" Path 5" class="cls-2" d="m9.5,93.1h-3.5c-.52-.17-1.09.11-1.26.64-.17.52.11,1.09.64,1.26.2.07.42.07.62,0h3.5c.52.17,1.09-.11,1.26-.64.17-.52-.11-1.09-.64-1.26-.2-.07-.42-.07-.62,0Z"/>
  <path id="_Compound_Path_2" data-name=" Compound Path 2" class="cls-2" d="m69,60.5c-.12-1.63-.83-3.16-2-4.3-1.94-2.06-4.67-3.19-7.5-3.1-3.74.13-7.29,1.71-9.9,4.4-3.1-2.6-6.4-5-10.7-4.5-3.83.4-6.99,3.16-7.9,6.9v20.9c0,4.8,3.9,8.7,8.7,8.7h20.6c4.8,0,8.7-3.9,8.7-8.7,0,0,0-20.3,0-20.3Zm-9.5-5.5c2.3-.08,4.52.83,6.1,2.5.85.85,1.35,2,1.4,3.2,0,1.2-.8,2.1-2.4,2.6-2.5.78-5.19.63-7.6-.4-2.21-1.07-4.23-2.49-6-4.2,2.25-2.28,5.3-3.6,8.5-3.7Zm7.6,25.7c0,3.76-3.04,6.8-6.8,6.8h-20.6c-3.76,0-6.8-3.04-6.8-6.8h0v-20.4c.77-2.88,3.24-4.99,6.2-5.3,4-.5,7.1,2.2,10.4,5,2,1.92,4.3,3.51,6.8,4.7,1.62.65,3.35.99,5.1,1,1.29.01,2.58-.19,3.8-.6.64-.21,1.25-.52,1.8-.9v16.6l.1-.1Z"/>
  <circle class="cls-1" cx="54.5" cy="14.2" r="1.1"/>
  <circle class="cls-1" cx="56.5" cy="11.2" r=".4"/>
  <circle class="cls-1" cx="44" cy="14.2" r=".8"/>
  <circle class="cls-1" cx="41.8" cy="11.7" r=".2"/>
</svg>