<?xml version="1.0" encoding="UTF-8"?>
<svg id="COLOR_2" data-name="COLOR 2" xmlns="http://www.w3.org/2000/svg" viewBox="0 0 100 100">
  <defs>
    <style>
      .cls-1 {
        fill: #7f5c41;
      }

      .cls-1, .cls-2, .cls-3, .cls-4 {
        stroke-width: 0px;
      }

      .cls-2 {
        fill: #551a20;
      }

      .cls-3 {
        fill: #fab677;
      }

      .cls-4 {
        fill: #5c2aff;
      }
    </style>
  </defs>
  <path class="cls-3" d="m58.4,7.2c-.18-.2-.43-.31-.7-.3l-1.9.2c-.78,3.33-4.12,5.4-7.46,4.62-1.89-.44-3.46-1.74-4.24-3.52h-1.1c-.5.03-.88.45-.85.95,0,.09.02.17.05.25l1.7,6h14.3l.4-7.5c.03-.25-.04-.51-.2-.7Z"/>
  <path class="cls-3" d="m53.6,7.3c-.95,2.18-3.48,3.17-5.66,2.23-.75-.32-1.38-.85-1.84-1.53,0,0,7.5-.7,7.5-.7Z"/>
  <path id="_Path_" data-name=" Path " class="cls-4" d="m45.8,62.8c-2.3,3.3-4.6,5.9-7.8,6.3-3.3.41-6.57-.96-8.6-3.6-2.02-2.3-2.73-5.46-1.9-8.4.39-1.33,1.45-2.36,2.8-2.7h.6c1.6,0,3.3,1.1,5,3,2.48,3.01,6.03,4.95,9.9,5.4Z"/>
  <path id="_Path_2" data-name=" Path 2" class="cls-4" d="m77.5,65.1c0-.1-.6-7.5-5.4-11.6-2.61-2.1-5.99-3-9.3-2.5-7,.7-10.6,6-14.1,11.1s-5.8,8.4-10.5,9h-1.4c-3.48-.03-6.76-1.65-8.9-4.4-.8-.99-1.44-2.11-1.9-3.3-.13,1-.19,2-.2,3,.03,8.81,4.51,17.01,11.9,21.8h28c7.35-4.82,11.79-13.01,11.8-21.8,0,0,0-1.3,0-1.3Z"/>
  <path id="_Path_3" data-name=" Path 3" class="cls-2" d="m94,93.1h-6c-.52.17-.81.74-.64,1.26.1.3.34.54.64.64h6c.52-.17.81-.74.64-1.26-.1-.3-.34-.54-.64-.64Z"/>
  <path id="_Path_4" data-name=" Path 4" class="cls-2" d="m84,93.1h-1.9c-.52.17-.81.74-.64,1.26.1.3.34.54.64.64h1.9c.52-.17.81-.74.64-1.26-.1-.3-.34-.54-.64-.64Z"/>
  <path id="_Compound_Path_" data-name=" Compound Path " class="cls-2" d="m77.9,93.1h-9c14.73-10.45,18.2-30.86,7.75-45.59-4.09-5.76-9.93-10.05-16.65-12.21v-5.9h.4c3.09,0,5.6-2.51,5.6-5.6v-2.8c0-3.09-2.51-5.6-5.6-5.6h-1.4l.5-7.4c.04-.83-.29-1.64-.9-2.2-.61-.59-1.45-.88-2.3-.8l-12.8,1.2-1.7.2c-.85.06-1.62.5-2.1,1.2s-.62,1.58-.4,2.4l1.5,5.5h-1.2c-3.05,0-5.55,2.45-5.6,5.5v2.8c0,3.09,2.51,5.6,5.6,5.6h.4v5.8c-17.2,5.49-26.7,23.9-21.2,41.1,2.15,6.74,6.43,12.6,12.2,16.7H14.5c-.52-.17-1.09.11-1.26.64-.17.52.11,1.09.64,1.26.2.07.42.07.62,0h63.4c.5.24,1.1.03,1.34-.46.24-.5.03-1.1-.46-1.34-.28-.13-.6-.13-.87,0h0ZM52.5,7.3c-.7,1.52-2.22,2.5-3.9,2.5-1.43.05-2.78-.63-3.6-1.8l7.5-.7Zm-11.2,1.4c.16-.24.42-.38.7-.4h1c1.49,3.08,5.2,4.38,8.28,2.89,1.66-.8,2.88-2.3,3.32-4.09l1.9-.2c.27,0,.52.1.7.3.2.18.31.43.3.7l-.4,7.5h-14.3l-1.7-6c-.03-.25.04-.51.2-.7Zm-1.7,18.8c-2-.05-3.6-1.69-3.6-3.7v-2.8c0-2.04,1.66-3.7,3.7-3.7h20.7c2.04,0,3.7,1.66,3.7,3.7v2.8c0,2.04-1.66,3.7-3.7,3.7h-20.8Zm18.5,1.9v5.6h-16.1v-5.6h16.1Zm7.3,63.7h-30.7c-14.76-8.46-19.86-27.28-11.4-42.04,3.91-6.82,10.28-11.88,17.8-14.16h17.8c16.28,4.93,25.49,22.12,20.56,38.4-2.28,7.52-7.34,13.89-14.16,17.8,0,0,.1,0,.1,0Z"/>
  <path id="_Path_5" data-name=" Path 5" class="cls-2" d="m9.5,93.1h-3.5c-.52.17-.81.74-.64,1.26.1.3.34.54.64.64h3.5c.52-.17.81-.74.64-1.26-.1-.3-.34-.54-.64-.64Z"/>
  <g>
    <circle class="cls-1" cx="53.8" cy="13" r=".9"/>
    <circle class="cls-1" cx="55.6" cy="10.5" r=".4"/>
    <circle class="cls-1" cx="44.8" cy="13" r=".7"/>
    <circle class="cls-1" cx="43" cy="10.8" r=".2"/>
  </g>
  <path id="_Compound_Path_2" data-name=" Compound Path 2" class="cls-2" d="m77.8,64.9c0-.7-.8-8.4-6.1-12.9-2.99-2.44-6.87-3.53-10.7-3-7.9.8-12,6.7-15.5,11.9-3.76-.09-7.3-1.8-9.7-4.7-3.1-3.6-5.7-3.9-7.4-3.6-1.99.47-3.58,1.95-4.2,3.9-1.2,3.16-1.81,6.52-1.8,9.9-.01,9.53,4.81,18.41,12.8,23.6h29.6c8.07-5.14,12.97-14.03,13-23.6v-1.5Zm-51.9-7.8c.39-1.33,1.45-2.36,2.8-2.7h.6c1.6,0,3.3,1.1,5,3,2.5,2.97,6.04,4.87,9.9,5.3-2.3,3.3-4.6,5.9-7.8,6.3-3.3.41-6.57-.96-8.6-3.6-1.98-2.27-2.7-5.39-1.9-8.3Zm38.1,31.1h-28c-7.39-4.79-11.87-12.99-11.9-21.8,0-1,.07-2,.2-3,.46,1.19,1.1,2.31,1.9,3.3,2.14,2.75,5.42,4.37,8.9,4.4h1.4c4.7-.6,7.5-4.7,10.5-9s7.1-10.4,14.1-11.1c3.31-.5,6.69.4,9.3,2.5,4.8,4.1,5.4,11.5,5.4,11.6v1.3c-.01,8.79-4.45,16.98-11.8,21.8Z"/>
  <path class="cls-1" d="m50.5,14.7c0,.29-.11.58-.3.8h-1.9c-.17-.19-.28-.44-.3-.7-.03-.69.51-1.27,1.2-1.3.69-.03,1.27.51,1.3,1.2Z"/>
</svg>