<?xml version="1.0" encoding="UTF-8"?>
<svg id="COLOR_6" data-name="COLOR 6" xmlns="http://www.w3.org/2000/svg" viewBox="0 0 100 100">
  <defs>
    <style>
      .cls-1 {
        fill: #7f5c41;
      }

      .cls-1, .cls-2, .cls-3, .cls-4 {
        stroke-width: 0px;
      }

      .cls-2 {
        fill: #551a20;
      }

      .cls-3 {
        fill: #00b748;
      }

      .cls-4 {
        fill: #fab677;
      }
    </style>
  </defs>
  <path class="cls-4" d="m58.4,7.1c-.16-.16-.38-.23-.6-.2l-4.8.4c-.62,2.12-2.84,3.34-4.96,2.72-1.06-.31-1.94-1.04-2.44-2.02h-.8c-.38.04-.67.38-.63.77,0,.05,0,.09.03.13l1.1,8.2h12l1.3-9.7c-.04-.12-.11-.22-.2-.3Z"/>
  <path class="cls-3" d="m47.4,64.7c-1,1.3-2,2.3-3.3,2.5-1.54.18-3.06-.47-4-1.7-.94-1.06-1.28-2.53-.9-3.9.15-.53.57-.95,1.1-1.1h.2c.95.14,1.79.69,2.3,1.5,1.2,1.38,2.81,2.32,4.6,2.7Z"/>
  <path class="cls-3" d="m75.3,84l-9.4-18.9c0-.1-3.5-6.9-8.7-6.4-3.4.3-5.2,3-7,5.5s-3.1,4.6-5.8,4.9h-.8c-1.94-.01-3.78-.89-5-2.4-.46-.54-.83-1.15-1.1-1.8l-9.5,19.1c-.61,1.18-.15,2.63,1.03,3.23.33.17.7.26,1.07.27h43c1.32.04,2.43-1.01,2.47-2.33.01-.41-.08-.81-.27-1.17Z"/>
  <path id="_Path_" data-name=" Path " class="cls-2" d="m94,93.1h-.5c-.52.17-.81.74-.64,1.26.1.3.34.54.64.64h.5c.52-.17.81-.74.64-1.26-.1-.3-.34-.54-.64-.64Z"/>
  <path id="_Compound_Path_" data-name=" Compound Path " class="cls-2" d="m90.7,93.1h-9.5c.68-.6,1.25-1.31,1.7-2.1,1.47-2.5,1.47-5.6,0-8.1l-22.2-42.2c-1.03-1.76-1.58-3.76-1.6-5.8v-6h1.9c2.26,0,4.1-1.84,4.1-4.1h0v-3.3c0-2.26-1.84-4.1-4.1-4.1h-3.1l1.3-9.6c.06-1.49-1.1-2.75-2.59-2.81h-.31l-5.5.5c-.44.04-.81.36-.9.8-.1,1.1-1,1.95-2.1,2-.93-.08-1.72-.71-2-1.6-.14-.43-.55-.72-1-.7h-1.6c-1.48.18-2.53,1.53-2.35,3.01,0,.1.03.2.05.29l1.1,8.1h-3c-2.26,0-4.1,1.84-4.1,4.1v3.4c0,2.26,1.84,4.1,4.1,4.1h1.9v6c0,2.07-.55,4.11-1.6,5.9l-22.2,42c-1.47,2.5-1.47,5.6,0,8.1.45.79,1.02,1.5,1.7,2.1h-4.3c-.52-.17-1.09.11-1.26.64-.17.52.11,1.09.64,1.26.2.07.42.07.62,0h76.2c.52.17,1.09-.11,1.26-.64.17-.52-.11-1.09-.64-1.26-.2-.07-.42-.07-.62,0h0ZM42.9,8.4c.12-.17.3-.28.5-.3h.8c1.01,1.97,3.42,2.74,5.38,1.74.98-.5,1.71-1.38,2.02-2.44l4.8-.4c.22-.03.44.04.6.2.13.13.2.31.2.5l-1.3,9.7h-12l-1.1-8.2c-.14-.26-.1-.58.1-.8Zm-4,18.6c-1.22,0-2.2-.98-2.2-2.2h0v-3.3c0-1.22.98-2.2,2.2-2.2h22.2c1.22,0,2.2.98,2.2,2.2h0v3.4c-.05,1.18-1.02,2.1-2.2,2.1h-22.2Zm37,66.1H24.1c-3.42-.04-6.17-2.84-6.13-6.27.01-1.06.3-2.11.83-3.03l22.1-42.1c1.19-2.07,1.81-4.41,1.8-6.8v-6h14.6v6c0,2.39.61,4.73,1.8,6.8l22.1,42.1c1.71,2.97.7,6.76-2.27,8.47-.92.53-1.97.82-3.03.83Z"/>
  <path id="_Path_2" data-name=" Path 2" class="cls-2" d="m9.5,93.1h-3.5c-.52.17-.81.74-.64,1.26.1.3.34.54.64.64h3.5c.52-.17.81-.74.64-1.26-.1-.3-.34-.54-.64-.64Z"/>
  <g>
    <circle class="cls-1" cx="49" cy="12.1" r=".8"/>
    <path id="_Compound_Path_2" data-name=" Compound Path 2" class="cls-1" d="m53.8,8.5c-.99,0-1.8.81-1.8,1.8s.81,1.8,1.8,1.8,1.8-.81,1.8-1.8h0c0-.99-.81-1.8-1.8-1.8Zm0,2.7c-.44,0-.8-.36-.8-.8s.36-.8.8-.8.8.36.8.8h0c0,.44-.36.8-.8.8Z"/>
    <circle class="cls-1" cx="54.6" cy="13" r=".3"/>
    <circle class="cls-1" cx="51.4" cy="15.4" r=".3"/>
    <circle class="cls-1" cx="47.3" cy="11.7" r=".3"/>
    <circle class="cls-1" cx="46.1" cy="15.4" r=".6"/>
    <circle class="cls-1" cx="44.3" cy="13.7" r=".2"/>
    <circle class="cls-1" cx="50.3" cy="15" r=".2"/>
  </g>
  <path id="_Compound_Path_3" data-name=" Compound Path 3" class="cls-2" d="m75.4,83.2l-9.5-18.9c-.2-.4-4.1-8-10.6-7.5-4.2.4-6.4,3.4-8.3,6.2-1.72-.14-3.3-.97-4.4-2.3-1.7-2-3.3-2.2-4.3-2-1,.22-1.84.88-2.3,1.8l-11.3,22.7c-1.11,2.1-.3,4.7,1.81,5.81.65.34,1.37.51,2.09.49h43c2.37,0,4.3-1.93,4.29-4.31,0-.69-.17-1.38-.49-1.99Zm-37.8-21.6c.15-.53.57-.95,1.1-1.1h.2c.91.17,1.71.71,2.2,1.5,1.18,1.41,2.8,2.4,4.6,2.8-1,1.3-2,2.3-3.3,2.5-1.54.18-3.06-.47-4-1.7-.94-1.11-1.24-2.62-.8-4Zm36,24.8c-.43.75-1.23,1.21-2.1,1.2H28.5c-1.33.01-2.41-1.05-2.42-2.38,0-.43.11-.85.32-1.22l9.5-19.1c.26.69.63,1.33,1.1,1.9,1.22,1.51,3.06,2.39,5,2.4h.8c2.6-.3,4.2-2.6,5.8-4.9s3.6-5.2,7-5.5c5.2-.5,8.7,6.3,8.7,6.4l9.3,18.8c.4.76.36,1.68-.1,2.4,0,0,.1,0,.1,0Z"/>
</svg>