<?xml version="1.0" encoding="UTF-8"?>
<svg id="COLOR_9" data-name="COLOR 9" xmlns="http://www.w3.org/2000/svg" viewBox="0 0 100 100">
  <defs>
    <style>
      .cls-1 {
        fill: #7f5c41;
      }

      .cls-1, .cls-2, .cls-3, .cls-4, .cls-5 {
        stroke-width: 0px;
      }

      .cls-2 {
        fill: #551a20;
      }

      .cls-3 {
        fill: #00de00;
      }

      .cls-4 {
        fill: #fab677;
      }

      .cls-5 {
        fill: #00ff23;
      }
    </style>
  </defs>
  <path class="cls-4" d="m55.7,7c-.16-.15-.38-.22-.6-.2l-4.8.4c-.62,2.12-2.84,3.34-4.96,2.72-1.06-.31-1.94-1.04-2.44-2.02h-.9c-.44.04-.76.43-.72.87,0,.04,0,.09.02.13l1.1,8.1h12.2l1.3-9.7c-.04-.12-.11-.22-.2-.3Z"/>
  <path class="cls-5" d="m54.8,50.5c0,.43-.28.8-.7.9-.82.32-1.74.24-2.5-.2-.75-.45-1.43-1.03-2-1.7.67-.81,1.65-1.32,2.7-1.4,1.34,0,2.45,1.06,2.5,2.4Z"/>
  <path class="cls-3" d="m53.1,53.4c-.8-.02-1.59-.22-2.3-.6-1.06-.64-2.01-1.45-2.8-2.4-1.2-1.3-2.3-2.5-3.6-2.3-1.08.28-1.87,1.19-2,2.3v30c0,3.8,1.3,6.3,2.1,6.3h8.1c.9,0,2.1-2.5,2.1-6.3v-27.3c-.51.2-1.05.3-1.6.3Z"/>
  <path class="cls-2" d="m94.1,93.2h-6.1c-.5,0-.9.4-.9.9s.4.9.9.9h6.1c.5,0,.9-.4.9-.9s-.4-.9-.9-.9Z"/>
  <path class="cls-2" d="m84,93.2h-1.9c-.5,0-.9.4-.9.9s.4.9.9.9h1.9c.5,0,.9-.4.9-.9s-.4-.9-.9-.9h0Z"/>
  <path class="cls-2" d="m77.9,93.2h-21.1c3.11-2.03,4.99-5.49,5-9.2V28.5h1.5c2.93,0,5.3-2.37,5.3-5.3h0v-.7c0-2.93-2.37-5.3-5.3-5.3h-5.5l1.3-9.5c.06-1.43-1.06-2.65-2.49-2.71h-.31l-5.5.5c-.42.04-.76.38-.8.8-.15,1.11-1.08,1.96-2.2,2-.97-.04-1.81-.68-2.1-1.6-.14-.42-.56-.67-1-.6h-1.5c-1.43.13-2.49,1.39-2.36,2.82,0,.13.03.26.06.38l1.1,8h-5.3c-2.93,0-5.3,2.37-5.3,5.3v.7c0,2.93,2.37,5.3,5.3,5.3h1.5v55.4c0,3.71,1.89,7.17,5,9.2H14.5c-.5,0-.9.4-.9.9s.4.9.9.9h63.4c.5,0,.9-.4.9-.9s-.4-.9-.9-.9h0ZM42.8,8.4c.13-.22.35-.37.6-.4h.9c1.01,1.97,3.42,2.74,5.38,1.74.98-.5,1.71-1.38,2.02-2.44l4.8-.4c.22-.02.44.05.6.2.13.13.2.31.2.5l-1.3,9.7h-12.1l-1.2-8.2c-.08-.24-.04-.49.1-.7Zm-6.1,18.3c-1.93,0-3.5-1.57-3.5-3.5v-.7c0-1.93,1.57-3.5,3.5-3.5h26.6c1.93,0,3.5,1.57,3.5,3.5v.7c0,1.93-1.57,3.5-3.5,3.5h-26.6Zm12.5,66.5c-5.08,0-9.2-4.12-9.2-9.2V28.5h20v55.5c0,5.08-4.12,9.2-9.2,9.2h-1.6Z"/>
  <path class="cls-2" d="m9.4,93.2h-3.5c-.5,0-.9.4-.9.9s.4.9.9.9h3.5c.5,0,.9-.4.9-.9s-.4-.9-.9-.9Z"/>
  <g>
    <circle class="cls-1" cx="49" cy="12.1" r=".8"/>
    <path class="cls-1" d="m53.8,8.5c-.99,0-1.8.81-1.8,1.8s.81,1.8,1.8,1.8,1.8-.81,1.8-1.8h0c0-.99-.81-1.8-1.8-1.8Zm0,2.7c-.5,0-.9-.4-.9-.9s.4-.9.9-.9.9.4.9.9-.4.9-.9.9h0Z"/>
    <circle class="cls-1" cx="54.6" cy="12.9" r=".3"/>
    <circle class="cls-1" cx="51.4" cy="15.4" r=".3"/>
    <circle class="cls-1" cx="47.3" cy="11.6" r=".3"/>
    <circle class="cls-1" cx="46.1" cy="15.4" r=".7"/>
    <circle class="cls-1" cx="44.3" cy="13.6" r=".2"/>
    <circle class="cls-1" cx="50.3" cy="14.9" r=".2"/>
  </g>
  <path class="cls-2" d="m58,50.5c0-.91-.32-1.79-.9-2.5-.8-1.08-2.06-1.71-3.4-1.7-1.5.08-2.91.77-3.9,1.9-1.2-1.2-2.5-2.2-4.3-1.9-1.8.35-3.2,1.79-3.5,3.6v30.5c0,3.9,1.4,8.1,4,8.1h8.1c2.6,0,4-4.2,4-8.1v-29.9s-.1,0-.1,0Zm-4.3-2.4c1.3.05,2.35,1.1,2.4,2.4,0,.43-.28.8-.7.9-.82.32-1.74.24-2.5-.2-.75-.45-1.43-1.03-2-1.7.72-.86,1.78-1.37,2.9-1.4h-.1Zm2.5,32.3c0,3.8-1.3,6.3-2.1,6.3h-8.2c-.9,0-2.1-2.5-2.1-6.3v-30.1c.13-1.11.92-2.02,2-2.3,1.3-.2,2.4,1,3.6,2.3.78.99,1.73,1.83,2.8,2.5.71.38,1.5.58,2.3.6.58,0,1.16-.09,1.7-.3v27.3Z"/>
</svg>