<?xml version="1.0" encoding="UTF-8"?>
<svg id="COLOR_10" data-name="COLOR 10" xmlns="http://www.w3.org/2000/svg" viewBox="0 0 100 100">
  <defs>
    <style>
      .cls-1 {
        fill: #7f5c41;
      }

      .cls-1, .cls-2, .cls-3, .cls-4 {
        stroke-width: 0px;
      }

      .cls-2 {
        fill: #551a20;
      }

      .cls-3 {
        fill: #c72c00;
      }

      .cls-4 {
        fill: #fab677;
      }
    </style>
  </defs>
  <path class="cls-4" d="m59.3,7.4c-.32-.3-.76-.45-1.2-.4l-7.1.7c-.69,2.85-3.55,4.6-6.39,3.91-1.6-.39-2.94-1.5-3.61-3.01h-1.4c-.4.05-.77.26-1,.6-.25.35-.32.79-.2,1.2l1.7,11.8h17.7l1.9-14c-.04-.3-.18-.58-.4-.8Z"/>
  <path class="cls-3" d="m38.7,60.4h-1.3s-4,.5-4,3c.03.57.33,1.09.8,1.4,1.66,1.16,3.7,1.62,5.7,1.3,2.02-.51,3.81-1.67,5.1-3.3-2-1.4-3.6-2.4-6.3-2.4Z"/>
  <path class="cls-3" d="m72.7,63.4c-2.4-4.6-9.2-6.8-14.5-6.5-3.54.22-6.85,1.84-9.2,4.5l-1.3,1.4c-2,2.3-4.1,4.6-7.5,5.2h-1.6c-1.87.02-3.71-.5-5.3-1.5.16,6.89,2.05,13.63,5.5,19.6.35.61,1,.99,1.7,1h25c.71,0,1.36-.38,1.7-1,3.98-6.88,5.89-14.76,5.5-22.7Z"/>
  <circle class="cls-1" cx="49.6" cy="14.7" r="1.2"/>
  <path class="cls-1" d="m56.4,9.8c-1.33,0-2.4,1.07-2.4,2.4s1.07,2.4,2.4,2.4,2.4-1.07,2.4-2.4-1.07-2.4-2.4-2.4h0Zm0,3.8c-.77,0-1.4-.63-1.4-1.4s.63-1.4,1.4-1.4,1.4.63,1.4,1.4-.63,1.4-1.4,1.4h0Z"/>
  <path class="cls-1" d="m58,15.9c0,.28-.23.5-.51.49s-.5-.23-.49-.51c0-.28.23-.5.51-.49h.09c.22,0,.41.17.41.39,0,.04,0,.08,0,.11h0Z"/>
  <path class="cls-1" d="m53.4,19.4c-.06.21-.27.34-.49.29-.21-.06-.34-.27-.29-.49.04-.17.2-.29.37-.3.22,0,.41.17.41.39,0,.04,0,.08,0,.11h.01Z"/>
  <path class="cls-1" d="m47.6,14.1c0,.28-.22.5-.5.5s-.5-.22-.5-.5.22-.5.5-.5c.21-.07.43.05.5.26.02.08.02.16,0,.24Z"/>
  <circle class="cls-1" cx="45.4" cy="19.4" r=".9"/>
  <path class="cls-1" d="m43.2,16.9c0,.11-.09.2-.2.2s-.2-.09-.2-.2.09-.2.2-.2.2.09.2.2h0Z"/>
  <circle class="cls-1" cx="51.4" cy="18.7" r=".2"/>
  <path class="cls-2" d="m72.6,63c0-.14-.04-.28-.1-.4-2.7-5.4-10.5-8-16.4-7.7-4.07.23-7.88,2.06-10.6,5.1l-1.2,1.3c-2.6-1.8-4.8-3.3-9.1-2.8-2.1.2-5.7,1.5-5.8,4.9-.43,8.32,1.55,16.58,5.7,23.8.69,1.23,1.99,2,3.4,2h25c1.41,0,2.71-.77,3.4-2,4.23-7.33,6.21-15.75,5.7-24.2Zm-37.2-2.5h1.3c2.6,0,4.3,1,6.2,2.5-1.31,1.65-3.15,2.82-5.2,3.3-2,.32-4.04-.14-5.7-1.3-.47-.31-.77-.83-.8-1.4.1-2.6,4.1-3.1,4.2-3.1Zm29.8,25.7c-.34.62-.99,1.01-1.7,1h-25c-.7-.01-1.35-.39-1.7-1-3.45-5.97-5.34-12.71-5.5-19.6,1.59,1,3.43,1.52,5.3,1.5h1.5c3.4-.6,5.5-2.9,7.5-5.2l1.3-1.4c2.37-2.68,5.72-4.3,9.3-4.5,5.3-.3,12.1,1.9,14.5,6.5.39,7.94-1.52,15.82-5.5,22.7Z"/>
  <path class="cls-2" d="m94,93h-6c-.55,0-1,.45-1,1s.45,1,1,1h6c.55,0,1-.45,1-1s-.45-1-1-1Z"/>
  <path class="cls-2" d="m84,93h-1.9c-.55,0-1,.45-1,1s.45,1,1,1h1.9c.55,0,1-.45,1-1s-.45-1-1-1Z"/>
  <path class="cls-2" d="m77.8,93h-8.4c1.05-.78,1.94-1.77,2.6-2.9,9.33-16.31,8.59-36.51-1.9-52.1l-2.7-4.1c2.82-.35,4.92-2.76,4.9-5.6v-.3c0-3.09-2.51-5.6-5.6-5.6h-5l1.9-13.8c.11-1.87-1.31-3.49-3.19-3.6h-.41l-7.8.7c-.44.04-.81.36-.9.8-.11,1.87-1.72,3.31-3.59,3.2-1.5-.09-2.76-1.14-3.11-2.6-.14-.43-.55-.72-1-.7l-2.2.2c-1.87.17-3.25,1.82-3.09,3.69.02.17.04.34.09.51l1.6,11.5h-4.7c-3.09,0-5.6,2.51-5.6,5.6v.5c-.02,2.84,2.08,5.25,4.9,5.6l-2.7,4c-10.49,15.59-11.23,35.79-1.9,52.1.66,1.13,1.55,2.12,2.6,2.9H14.5c-.55,0-1,.45-1,1s.45,1,1,1h63.3c.55,0,1-.45,1-1s-.45-1-1-1ZM40.6,9.3c.23-.34.6-.55,1-.6h1.5c1.18,2.68,4.31,3.89,6.99,2.71,1.51-.67,2.62-2,3.01-3.61l7-.8c.41-.02.8.12,1.1.4.26.27.41.63.4,1l-1.9,14h-17.6l-1.7-11.8c-.15-.44-.08-.93.2-1.3Zm-8.9,19v-.3c0-2.04,1.66-3.7,3.7-3.7h31.3c2.04,0,3.7,1.66,3.7,3.7v.4c-.05,2-1.69,3.6-3.7,3.6h-31.4c-2-.05-3.6-1.69-3.6-3.7Zm31.8,64.7h-25c-2.8.02-5.4-1.47-6.8-3.9-9-15.68-8.3-35.11,1.8-50.1l3.4-5h28.2l3.5,5.1c10.08,15,10.78,34.42,1.8,50.1-1.44,2.42-4.08,3.87-6.9,3.8Z"/>
  <path class="cls-2" d="m9.5,93h-3.5c-.55,0-1,.45-1,1s.45,1,1,1h3.5c.55,0,1-.45,1-1s-.45-1-1-1Z"/>
</svg>