<?xml version="1.0" encoding="iso-8859-1"?>
<!-- Generator: Adobe Illustrator 19.0.0, SVG Export Plug-In . SVG Version: 6.00 Build 0)  -->
<svg version="1.1" id="Capa_1" xmlns="http://www.w3.org/2000/svg" xmlns:xlink="http://www.w3.org/1999/xlink" x="0px" y="0px"
	 viewBox="0 0 512 512" style="enable-background:new 0 0 512 512;" xml:space="preserve">
<path style="fill:#E7ECED;" d="M424,64v112H312c0,0-32,0-32,24c0,3.44,0,6,0,8v5.2V256h96l-16,112h-80v136H168V368H96l-8-112h80v-48
	v-80c0,0,0-64,72-64S424,64,424,64z"/>
<path style="fill:#0063BC;" d="M504,80v352c0,39.76-32.24,72-72,72H280V368h80l16-112h-96v-42.8V208c0-2,0-4.56,0-8
	c0-24,32-24,32-24h112V64c0,0-112,0-184,0s-72,64-72,64v80v48H88l8,112h72v136H80c-39.76,0-72-32.24-72-72V80C8,40.24,40.24,8,80,8
	h352C471.76,8,504,40.24,504,80z"/>
<path d="M432,0H80C35.888,0,0,35.888,0,80v352c0,44.112,35.888,80,80,80h352c44.112,0,80-35.888,80-80V80
	C512,35.888,476.112,0,432,0z M168,360h-64.552l-6.856-96H168c4.416,0,8-3.584,8-8V128c0-2.288,0.728-56,64-56h176v96H312
	c-13.832,0-40,6.688-40,32v56c0,4.416,3.584,8,8,8h86.776l-13.712,96H280c-4.416,0-8,3.584-8,8v128h-96V368
	C176,363.584,172.416,360,168,360z M496,432c0,35.288-28.712,64-64,64H288V376h72c3.984,0,7.352-2.928,7.92-6.864l16-112
	c0.328-2.296-0.352-4.624-1.872-6.376C380.52,249.008,378.32,248,376,248h-88v-48c0-15.664,23.04-15.992,24-16h112
	c4.416,0,8-3.584,8-8V64c0-4.416-3.584-8-8-8H240c-79.088,0-80,71.28-80,72v120H88c-2.224,0-4.336,0.92-5.856,2.544
	c-1.512,1.624-2.28,3.808-2.128,6.024l8,112C88.32,372.76,91.808,376,96,376h64v120H80c-35.288,0-64-28.712-64-64V80
	c0-35.288,28.712-64,64-64h352c35.288,0,64,28.712,64,64V432z"/>
<path d="M32,96h16c0-46.256,35.944-47.96,40.04-48L88,32C87.44,32,32,32.728,32,96z"/>
<g>
</g>
<g>
</g>
<g>
</g>
<g>
</g>
<g>
</g>
<g>
</g>
<g>
</g>
<g>
</g>
<g>
</g>
<g>
</g>
<g>
</g>
<g>
</g>
<g>
</g>
<g>
</g>
<g>
</g>
</svg>
