<?xml version="1.0" encoding="iso-8859-1"?>
<!-- Generator: Adobe Illustrator 19.0.0, SVG Export Plug-In . SVG Version: 6.00 Build 0)  -->
<svg version="1.1" id="Capa_1" xmlns="http://www.w3.org/2000/svg" xmlns:xlink="http://www.w3.org/1999/xlink" x="0px" y="0px"
	 viewBox="0 0 512 512" style="enable-background:new 0 0 512 512;" xml:space="preserve">
<g>
	<circle style="fill:#AFB6BB;" cx="384" cy="120" r="24"/>
	<circle style="fill:#AFB6BB;" cx="256" cy="256" r="88"/>
</g>
<path style="fill:#E7ECED;" d="M456,144v224c0,48.64-39.36,88-88,88H144c-48.64,0-88-39.36-88-88V144c0-48.64,39.36-88,88-88h224
	C416.64,56,456,95.36,456,144z M408,120c0-13.28-10.72-24-24-24s-24,10.72-24,24s10.72,24,24,24S408,133.28,408,120z M384,256
	c0-70.72-57.28-128-128-128s-128,57.28-128,128s57.28,128,128,128S384,326.72,384,256z"/>
<g>
	<path style="fill:#933CBE;" d="M256,128c70.72,0,128,57.28,128,128s-57.28,128-128,128s-128-57.28-128-128S185.28,128,256,128z
		 M344,256c0-48.64-39.36-88-88-88s-88,39.36-88,88s39.36,88,88,88S344,304.64,344,256z"/>
	<path style="fill:#933CBE;" d="M504,104v304c0,53.04-42.96,96-96,96H104c-53.04,0-96-42.96-96-96V104C8,50.96,50.96,8,104,8h304
		C461.04,8,504,50.96,504,104z M456,368V144c0-48.64-39.36-88-88-88H144c-48.64,0-88,39.36-88,88v224c0,48.64,39.36,88,88,88h224
		C416.64,456,456,416.64,456,368z"/>
</g>
<path d="M408,512H104C46.656,512,0,465.344,0,408V104C0,46.656,46.656,0,104,0h304c57.344,0,104,46.656,104,104v304
	C512,465.344,465.344,512,408,512z M104,16c-48.52,0-88,39.48-88,88v304c0,48.52,39.48,88,88,88h304c48.52,0,88-39.48,88-88V104
	c0-48.52-39.48-88-88-88H104z"/>
<path d="M368,464H144c-52.936,0-96-43.064-96-96V144c0-52.936,43.064-96,96-96h224c52.936,0,96,43.064,96,96v224
	C464,420.936,420.936,464,368,464z M144,64c-44.112,0-80,35.888-80,80v224c0,44.112,35.888,80,80,80h224c44.112,0,80-35.888,80-80
	V144c0-44.112-35.888-80-80-80H144z"/>
<path d="M256,392c-74.992,0-136-61.008-136-136s61.008-136,136-136s136,61.008,136,136S330.992,392,256,392z M256,136
	c-66.168,0-120,53.832-120,120s53.832,120,120,120s120-53.832,120-120S322.168,136,256,136z"/>
<path d="M256,352c-52.936,0-96-43.064-96-96s43.064-96,96-96s96,43.064,96,96S308.936,352,256,352z M256,176
	c-44.112,0-80,35.888-80,80s35.888,80,80,80s80-35.888,80-80S300.112,176,256,176z"/>
<path d="M384,152c-17.648,0-32-14.352-32-32s14.352-32,32-32s32,14.352,32,32S401.648,152,384,152z M384,104
	c-8.824,0-16,7.176-16,16s7.176,16,16,16s16-7.176,16-16S392.824,104,384,104z"/>
<path d="M216,256h-16c0-30.88,25.12-56,56-56v16C233.944,216,216,233.944,216,256z"/>
<g>
</g>
<g>
</g>
<g>
</g>
<g>
</g>
<g>
</g>
<g>
</g>
<g>
</g>
<g>
</g>
<g>
</g>
<g>
</g>
<g>
</g>
<g>
</g>
<g>
</g>
<g>
</g>
<g>
</g>
</svg>
